# xmcd
# Track frame offsets:
# 150
# 14735
# 29290
# 48090
# 64100
# 75687
# 92337
# 105905
# 120032
# 133202
# 149890
# 164187
# 178590
# 191545
#
# Disc length: 2837 seconds
# Revision: 0
# Processed by: cddbd v1.5.2PL0 Copyright (c) Steve Scherf et al.
# Submitted via: VisiTrax 2.9.3.171 - For more info visit www.synapsa.com
#
DISCID=bb0b130e
DTITLE=Various Artist - Mr Music Country 2-00
DYEAR=2000
DGENRE=
TTITLE0=Sarah Ray - You Are My Angel
TTITLE1=Mason Mitchell - Good Loving Daddy
TTITLE2=David James - Head Over Heals
TTITLE3=Karen Flynn - Sounds Like Love
TTITLE4=Kevin Deal - Take Me Away
TTITLE5=Gary P. Nunn - Pour Beer In My Face
TTITLE6=Montana Rose with Claudia Williams - Dirty Little Town
TTITLE7=Benny Berry - Pickin' Wild Flowers
TTITLE8=Craig Carter - The last Frontier
TTITLE9=Chip Taylor - Dalton Days
TTITLE10=Dale Watson - Everyday Knuckleclutchin' Gearjammin' Supertruckin' Loos
TTITLE10=e Nut Behind The Wheel
TTITLE11=Heather Myles with Merle Haggard - No One Is Gonna Love You Better
TTITLE12=Michael Shane Borden - Talkin' 'bout Texas
TTITLE13=Larry Kingston - Would You Still Be Mine
EXTD=
EXTT0=
EXTT1=
EXTT2=
EXTT3=
EXTT4=
EXTT5=
EXTT6=
EXTT7=
EXTT8=
EXTT9=
EXTT10=
EXTT11=
EXTT12=
EXTT13=
PLAYORDER=
